<mxfile host="app.diagrams.net" modified="2024-02-06T09:24:40.354Z" agent="Mozilla/5.0 (Windows NT 10.0; Win64; x64) AppleWebKit/537.36 (KHTML, like Gecko) Chrome/122.0.0.0 Safari/537.36" etag="4y_Q8AmBZVPtIVn7rCDm" version="23.1.1" type="github">
  <diagram name="Page-1" id="b98fa263-6416-c6ec-5b7d-78bf54ef71d0">
    <mxGraphModel dx="3827.5" dy="1140" grid="1" gridSize="10" guides="1" tooltips="1" connect="1" arrows="1" fold="1" page="1" pageScale="1.5" pageWidth="1169" pageHeight="826" background="none" math="0" shadow="0">
      <root>
        <mxCell id="0" style=";html=1;" />
        <mxCell id="1" style=";html=1;" parent="0" />
        <mxCell id="naJAC-TWyROlUof-yu1L-5" value="" style="edgeStyle=orthogonalEdgeStyle;rounded=0;orthogonalLoop=1;jettySize=auto;html=1;" edge="1" parent="1" source="303ed1de8c2c98b4-5" target="303ed1de8c2c98b4-10">
          <mxGeometry relative="1" as="geometry" />
        </mxCell>
        <mxCell id="naJAC-TWyROlUof-yu1L-13" style="edgeStyle=orthogonalEdgeStyle;rounded=0;orthogonalLoop=1;jettySize=auto;html=1;" edge="1" parent="1" source="303ed1de8c2c98b4-5" target="303ed1de8c2c98b4-21">
          <mxGeometry relative="1" as="geometry" />
        </mxCell>
        <mxCell id="303ed1de8c2c98b4-5" value="phase A overdue data object" style="whiteSpace=wrap;html=1;rounded=1;shadow=1;strokeWidth=1;align=center;fillColor=#f5f5f5;strokeColor=#666666;fontSize=16;" parent="1" vertex="1">
          <mxGeometry x="290" y="415" width="275" height="40" as="geometry" />
        </mxCell>
        <mxCell id="naJAC-TWyROlUof-yu1L-15" value="" style="edgeStyle=orthogonalEdgeStyle;rounded=0;orthogonalLoop=1;jettySize=auto;html=1;" edge="1" parent="1" source="303ed1de8c2c98b4-6" target="303ed1de8c2c98b4-13">
          <mxGeometry relative="1" as="geometry" />
        </mxCell>
        <mxCell id="303ed1de8c2c98b4-6" value="phase A task summaries object" style="whiteSpace=wrap;html=1;rounded=1;shadow=1;strokeWidth=1;fontSize=16;align=center;fillColor=#f5f5f5;strokeColor=#666666;" parent="1" vertex="1">
          <mxGeometry x="630" y="415" width="275" height="40" as="geometry" />
        </mxCell>
        <mxCell id="naJAC-TWyROlUof-yu1L-2" value="" style="edgeStyle=orthogonalEdgeStyle;rounded=0;orthogonalLoop=1;jettySize=auto;html=1;" edge="1" parent="1" target="303ed1de8c2c98b4-15">
          <mxGeometry relative="1" as="geometry">
            <mxPoint x="67.5" y="457.5" as="sourcePoint" />
          </mxGeometry>
        </mxCell>
        <mxCell id="303ed1de8c2c98b4-7" value="phase A object" style="whiteSpace=wrap;html=1;rounded=1;shadow=1;strokeWidth=1;fontSize=16;align=center;fillColor=#f5f5f5;strokeColor=#666666;" parent="1" vertex="1">
          <mxGeometry x="-70" y="415" width="275" height="45" as="geometry" />
        </mxCell>
        <mxCell id="naJAC-TWyROlUof-yu1L-8" value="" style="edgeStyle=orthogonalEdgeStyle;rounded=0;orthogonalLoop=1;jettySize=auto;html=1;" edge="1" parent="1" source="303ed1de8c2c98b4-10" target="303ed1de8c2c98b4-41">
          <mxGeometry relative="1" as="geometry" />
        </mxCell>
        <mxCell id="naJAC-TWyROlUof-yu1L-9" style="edgeStyle=orthogonalEdgeStyle;rounded=0;orthogonalLoop=1;jettySize=auto;html=1;entryX=0.5;entryY=0;entryDx=0;entryDy=0;" edge="1" parent="1" source="303ed1de8c2c98b4-10" target="303ed1de8c2c98b4-31">
          <mxGeometry relative="1" as="geometry" />
        </mxCell>
        <mxCell id="naJAC-TWyROlUof-yu1L-10" style="edgeStyle=orthogonalEdgeStyle;rounded=0;orthogonalLoop=1;jettySize=auto;html=1;" edge="1" parent="1" source="303ed1de8c2c98b4-10">
          <mxGeometry relative="1" as="geometry">
            <mxPoint x="472.5" y="630" as="targetPoint" />
            <Array as="points">
              <mxPoint x="368" y="600" />
              <mxPoint x="473" y="600" />
            </Array>
          </mxGeometry>
        </mxCell>
        <mxCell id="303ed1de8c2c98b4-10" value="data array" style="whiteSpace=wrap;html=1;rounded=1;shadow=1;strokeWidth=1;fontSize=16;align=center;fillColor=#f5f5f5;strokeColor=#666666;" parent="1" vertex="1">
          <mxGeometry x="305" y="500" width="125" height="80" as="geometry" />
        </mxCell>
        <mxCell id="naJAC-TWyROlUof-yu1L-28" style="edgeStyle=orthogonalEdgeStyle;rounded=0;orthogonalLoop=1;jettySize=auto;html=1;" edge="1" parent="1" source="303ed1de8c2c98b4-13" target="303ed1de8c2c98b4-23">
          <mxGeometry relative="1" as="geometry">
            <Array as="points">
              <mxPoint x="768" y="590" />
              <mxPoint x="642" y="590" />
            </Array>
          </mxGeometry>
        </mxCell>
        <mxCell id="naJAC-TWyROlUof-yu1L-29" style="edgeStyle=orthogonalEdgeStyle;rounded=0;orthogonalLoop=1;jettySize=auto;html=1;" edge="1" parent="1" source="303ed1de8c2c98b4-13" target="303ed1de8c2c98b4-33">
          <mxGeometry relative="1" as="geometry" />
        </mxCell>
        <mxCell id="303ed1de8c2c98b4-13" value="data" style="whiteSpace=wrap;html=1;rounded=1;shadow=1;strokeWidth=1;align=center;fillColor=#f5f5f5;strokeColor=#666666;fontSize=16;" parent="1" vertex="1">
          <mxGeometry x="720" y="507.5" width="95" height="50" as="geometry" />
        </mxCell>
        <mxCell id="naJAC-TWyROlUof-yu1L-3" value="" style="edgeStyle=orthogonalEdgeStyle;rounded=0;orthogonalLoop=1;jettySize=auto;html=1;" edge="1" parent="1" source="303ed1de8c2c98b4-15" target="303ed1de8c2c98b4-70">
          <mxGeometry relative="1" as="geometry" />
        </mxCell>
        <mxCell id="303ed1de8c2c98b4-15" value="&quot;type&quot;: &quot;Phase&quot;," style="whiteSpace=wrap;html=1;rounded=1;shadow=1;strokeWidth=1;align=center;fillColor=#f5f5f5;strokeColor=#666666;fontSize=16;" parent="1" vertex="1">
          <mxGeometry x="5" y="507.5" width="125" height="80" as="geometry" />
        </mxCell>
        <mxCell id="303ed1de8c2c98b4-21" value="links object" style="whiteSpace=wrap;html=1;rounded=1;shadow=1;strokeWidth=1;fontSize=16;align=center;fillColor=#f5f5f5;strokeColor=#666666;" parent="1" vertex="1">
          <mxGeometry x="460" y="500" width="125" height="80" as="geometry" />
        </mxCell>
        <mxCell id="naJAC-TWyROlUof-yu1L-16" value="" style="edgeStyle=orthogonalEdgeStyle;rounded=0;orthogonalLoop=1;jettySize=auto;html=1;" edge="1" parent="1" source="303ed1de8c2c98b4-23" target="303ed1de8c2c98b4-75">
          <mxGeometry relative="1" as="geometry">
            <Array as="points">
              <mxPoint x="642" y="720" />
              <mxPoint x="642" y="720" />
            </Array>
          </mxGeometry>
        </mxCell>
        <mxCell id="303ed1de8c2c98b4-23" value="summaries:" style="whiteSpace=wrap;html=1;rounded=1;shadow=1;strokeWidth=1;align=center;fillColor=#f5f5f5;strokeColor=#666666;fontSize=16;" parent="1" vertex="1">
          <mxGeometry x="590" y="625" width="104.5" height="50" as="geometry" />
        </mxCell>
        <mxCell id="303ed1de8c2c98b4-31" value="overdue A" style="whiteSpace=wrap;html=1;rounded=1;shadow=1;strokeWidth=1;fontSize=16;align=center;fillColor=#f5f5f5;strokeColor=#666666;" parent="1" vertex="1">
          <mxGeometry x="230" y="620" width="80" height="60" as="geometry" />
        </mxCell>
        <mxCell id="naJAC-TWyROlUof-yu1L-22" value="" style="edgeStyle=orthogonalEdgeStyle;rounded=0;orthogonalLoop=1;jettySize=auto;html=1;" edge="1" parent="1" source="303ed1de8c2c98b4-33" target="naJAC-TWyROlUof-yu1L-21">
          <mxGeometry relative="1" as="geometry">
            <Array as="points">
              <mxPoint x="860" y="700" />
              <mxPoint x="955" y="700" />
            </Array>
          </mxGeometry>
        </mxCell>
        <mxCell id="naJAC-TWyROlUof-yu1L-23" style="edgeStyle=orthogonalEdgeStyle;rounded=0;orthogonalLoop=1;jettySize=auto;html=1;" edge="1" parent="1" source="303ed1de8c2c98b4-33" target="naJAC-TWyROlUof-yu1L-20">
          <mxGeometry relative="1" as="geometry">
            <Array as="points">
              <mxPoint x="860" y="770" />
              <mxPoint x="860" y="770" />
            </Array>
          </mxGeometry>
        </mxCell>
        <mxCell id="naJAC-TWyROlUof-yu1L-27" style="edgeStyle=orthogonalEdgeStyle;rounded=0;orthogonalLoop=1;jettySize=auto;html=1;" edge="1" parent="1" source="303ed1de8c2c98b4-33" target="naJAC-TWyROlUof-yu1L-19">
          <mxGeometry relative="1" as="geometry">
            <Array as="points">
              <mxPoint x="860" y="700" />
              <mxPoint x="750" y="700" />
            </Array>
          </mxGeometry>
        </mxCell>
        <mxCell id="303ed1de8c2c98b4-33" value="groups array" style="whiteSpace=wrap;html=1;rounded=1;shadow=1;strokeWidth=1;align=center;fillColor=#f5f5f5;strokeColor=#666666;fontSize=16;" parent="1" vertex="1">
          <mxGeometry x="810" y="625" width="100" height="50" as="geometry" />
        </mxCell>
        <mxCell id="303ed1de8c2c98b4-41" value="overdue B" style="whiteSpace=wrap;html=1;rounded=1;shadow=1;strokeWidth=1;fontSize=16;align=center;fillColor=#f5f5f5;strokeColor=#666666;" parent="1" vertex="1">
          <mxGeometry x="322.5" y="620" width="90" height="60" as="geometry" />
        </mxCell>
        <mxCell id="303ed1de8c2c98b4-69" value="&quot;code&quot;: &quot;3.0.0&quot;" style="whiteSpace=wrap;html=1;rounded=1;shadow=1;strokeWidth=1;align=center;fillColor=#f5f5f5;strokeColor=#666666;fontSize=16;" parent="1" vertex="1">
          <mxGeometry x="7" y="732.5" width="125" height="80" as="geometry" />
        </mxCell>
        <mxCell id="naJAC-TWyROlUof-yu1L-4" value="" style="edgeStyle=orthogonalEdgeStyle;rounded=0;orthogonalLoop=1;jettySize=auto;html=1;" edge="1" parent="1" source="303ed1de8c2c98b4-70" target="303ed1de8c2c98b4-69">
          <mxGeometry relative="1" as="geometry" />
        </mxCell>
        <mxCell id="303ed1de8c2c98b4-70" value="&quot;id&quot;: 28," style="whiteSpace=wrap;html=1;rounded=1;shadow=1;strokeWidth=1;align=center;fillColor=#f5f5f5;strokeColor=#666666;fontSize=16;" parent="1" vertex="1">
          <mxGeometry x="7" y="617.5" width="125" height="80" as="geometry" />
        </mxCell>
        <mxCell id="naJAC-TWyROlUof-yu1L-14" style="edgeStyle=orthogonalEdgeStyle;rounded=0;orthogonalLoop=1;jettySize=auto;html=1;" edge="1" parent="1" source="303ed1de8c2c98b4-72" target="303ed1de8c2c98b4-5">
          <mxGeometry relative="1" as="geometry">
            <Array as="points">
              <mxPoint x="885" y="390" />
              <mxPoint x="488" y="390" />
            </Array>
          </mxGeometry>
        </mxCell>
        <mxCell id="303ed1de8c2c98b4-72" value="Shotgrid 数据" style="whiteSpace=wrap;html=1;rounded=1;shadow=1;strokeWidth=1;align=center;fillColor=default;strokeColor=#666666;fontSize=16;" parent="1" vertex="1">
          <mxGeometry x="764" y="250" width="242" height="40" as="geometry" />
        </mxCell>
        <mxCell id="303ed1de8c2c98b4-75" value="&quot;id&quot;: 1934" style="whiteSpace=wrap;html=1;rounded=1;shadow=1;strokeWidth=1;align=center;fillColor=#f5f5f5;strokeColor=#666666;fontSize=16;" parent="1" vertex="1">
          <mxGeometry x="580" y="742.5" width="114.5" height="40" as="geometry" />
        </mxCell>
        <mxCell id="303ed1de8c2c98b4-77" style="edgeStyle=orthogonalEdgeStyle;html=1;startSize=6;endFill=0;endSize=6;strokeWidth=1;fontSize=16;rounded=0;endArrow=none;entryX=0.5;entryY=0;entryDx=0;entryDy=0;" parent="1" source="303ed1de8c2c98b4-72" target="303ed1de8c2c98b4-7" edge="1">
          <mxGeometry relative="1" as="geometry">
            <mxPoint x="885" y="390" as="targetPoint" />
            <Array as="points">
              <mxPoint x="885" y="390" />
              <mxPoint x="120" y="390" />
              <mxPoint x="120" y="415" />
            </Array>
          </mxGeometry>
        </mxCell>
        <mxCell id="303ed1de8c2c98b4-81" style="edgeStyle=elbowEdgeStyle;html=1;startSize=6;endFill=0;endSize=6;strokeWidth=1;fontSize=16;rounded=0;endArrow=none;" parent="1" target="303ed1de8c2c98b4-6" edge="1">
          <mxGeometry relative="1" as="geometry">
            <Array as="points">
              <mxPoint x="885" y="395" />
            </Array>
            <mxPoint x="885" y="375" as="sourcePoint" />
          </mxGeometry>
        </mxCell>
        <mxCell id="303ed1de8c2c98b4-83" style="edgeStyle=orthogonalEdgeStyle;html=1;startSize=6;endFill=0;endSize=6;strokeWidth=1;fontSize=16;rounded=0;endArrow=none;" parent="1" edge="1">
          <mxGeometry relative="1" as="geometry">
            <Array as="points">
              <mxPoint x="885" y="390" />
              <mxPoint x="1195" y="390" />
            </Array>
            <mxPoint x="885" y="375" as="sourcePoint" />
            <mxPoint x="1195" y="415" as="targetPoint" />
          </mxGeometry>
        </mxCell>
        <mxCell id="303ed1de8c2c98b4-84" style="edgeStyle=orthogonalEdgeStyle;html=1;startSize=6;endFill=0;endSize=6;strokeWidth=1;fontSize=16;rounded=0;endArrow=none;" parent="1" edge="1">
          <mxGeometry relative="1" as="geometry">
            <Array as="points">
              <mxPoint x="885" y="390" />
              <mxPoint x="1494" y="390" />
            </Array>
            <mxPoint x="885" y="375" as="sourcePoint" />
            <mxPoint x="1494" y="415" as="targetPoint" />
          </mxGeometry>
        </mxCell>
        <mxCell id="naJAC-TWyROlUof-yu1L-7" value="overdue C" style="whiteSpace=wrap;html=1;rounded=1;shadow=1;strokeWidth=1;fontSize=16;align=center;fillColor=#f5f5f5;strokeColor=#666666;" vertex="1" parent="1">
          <mxGeometry x="440" y="620" width="90" height="60" as="geometry" />
        </mxCell>
        <mxCell id="naJAC-TWyROlUof-yu1L-19" value="group A" style="whiteSpace=wrap;html=1;rounded=1;shadow=1;strokeWidth=1;align=center;fillColor=#f5f5f5;strokeColor=#666666;fontSize=16;" vertex="1" parent="1">
          <mxGeometry x="710" y="725" width="80" height="60" as="geometry" />
        </mxCell>
        <mxCell id="naJAC-TWyROlUof-yu1L-20" value="group B" style="whiteSpace=wrap;html=1;rounded=1;shadow=1;strokeWidth=1;fontSize=16;align=center;fillColor=#f5f5f5;strokeColor=#666666;" vertex="1" parent="1">
          <mxGeometry x="810" y="725" width="80" height="57.5" as="geometry" />
        </mxCell>
        <mxCell id="naJAC-TWyROlUof-yu1L-21" value="group C" style="whiteSpace=wrap;html=1;rounded=1;shadow=1;strokeWidth=1;fontSize=16;align=center;fillColor=#f5f5f5;strokeColor=#666666;" vertex="1" parent="1">
          <mxGeometry x="910" y="727.5" width="80" height="55" as="geometry" />
        </mxCell>
        <mxCell id="naJAC-TWyROlUof-yu1L-30" value="" style="edgeStyle=orthogonalEdgeStyle;rounded=0;orthogonalLoop=1;jettySize=auto;html=1;" edge="1" parent="1" source="naJAC-TWyROlUof-yu1L-32" target="naJAC-TWyROlUof-yu1L-40">
          <mxGeometry relative="1" as="geometry" />
        </mxCell>
        <mxCell id="naJAC-TWyROlUof-yu1L-31" style="edgeStyle=orthogonalEdgeStyle;rounded=0;orthogonalLoop=1;jettySize=auto;html=1;" edge="1" parent="1" source="naJAC-TWyROlUof-yu1L-32" target="naJAC-TWyROlUof-yu1L-46">
          <mxGeometry relative="1" as="geometry" />
        </mxCell>
        <mxCell id="naJAC-TWyROlUof-yu1L-32" value="overdue data object" style="whiteSpace=wrap;html=1;rounded=1;shadow=1;strokeWidth=1;align=center;fillColor=#f5f5f5;strokeColor=#666666;fontSize=16;" vertex="1" parent="1">
          <mxGeometry x="1380" y="415" width="275" height="40" as="geometry" />
        </mxCell>
        <mxCell id="naJAC-TWyROlUof-yu1L-33" value="" style="edgeStyle=orthogonalEdgeStyle;rounded=0;orthogonalLoop=1;jettySize=auto;html=1;" edge="1" parent="1" source="naJAC-TWyROlUof-yu1L-34" target="naJAC-TWyROlUof-yu1L-43">
          <mxGeometry relative="1" as="geometry" />
        </mxCell>
        <mxCell id="naJAC-TWyROlUof-yu1L-34" value="task summaries object" style="whiteSpace=wrap;html=1;rounded=1;shadow=1;strokeWidth=1;fontSize=16;align=center;fillColor=#f5f5f5;strokeColor=#666666;" vertex="1" parent="1">
          <mxGeometry x="1720" y="415" width="275" height="40" as="geometry" />
        </mxCell>
        <mxCell id="naJAC-TWyROlUof-yu1L-35" value="" style="edgeStyle=orthogonalEdgeStyle;rounded=0;orthogonalLoop=1;jettySize=auto;html=1;" edge="1" parent="1" target="naJAC-TWyROlUof-yu1L-45">
          <mxGeometry relative="1" as="geometry">
            <mxPoint x="1157.5" y="457.5" as="sourcePoint" />
          </mxGeometry>
        </mxCell>
        <mxCell id="naJAC-TWyROlUof-yu1L-36" value="phase B object" style="whiteSpace=wrap;html=1;rounded=1;shadow=1;strokeWidth=1;fontSize=16;align=center;fillColor=#f5f5f5;strokeColor=#666666;" vertex="1" parent="1">
          <mxGeometry x="1020" y="415" width="275" height="45" as="geometry" />
        </mxCell>
        <mxCell id="naJAC-TWyROlUof-yu1L-37" value="" style="edgeStyle=orthogonalEdgeStyle;rounded=0;orthogonalLoop=1;jettySize=auto;html=1;" edge="1" parent="1" source="naJAC-TWyROlUof-yu1L-40" target="naJAC-TWyROlUof-yu1L-54">
          <mxGeometry relative="1" as="geometry" />
        </mxCell>
        <mxCell id="naJAC-TWyROlUof-yu1L-38" style="edgeStyle=orthogonalEdgeStyle;rounded=0;orthogonalLoop=1;jettySize=auto;html=1;entryX=0.5;entryY=0;entryDx=0;entryDy=0;" edge="1" parent="1" source="naJAC-TWyROlUof-yu1L-40" target="naJAC-TWyROlUof-yu1L-49">
          <mxGeometry relative="1" as="geometry" />
        </mxCell>
        <mxCell id="naJAC-TWyROlUof-yu1L-39" style="edgeStyle=orthogonalEdgeStyle;rounded=0;orthogonalLoop=1;jettySize=auto;html=1;" edge="1" parent="1" source="naJAC-TWyROlUof-yu1L-40">
          <mxGeometry relative="1" as="geometry">
            <mxPoint x="1562.5" y="630" as="targetPoint" />
            <Array as="points">
              <mxPoint x="1458" y="600" />
              <mxPoint x="1563" y="600" />
            </Array>
          </mxGeometry>
        </mxCell>
        <mxCell id="naJAC-TWyROlUof-yu1L-40" value="data array" style="whiteSpace=wrap;html=1;rounded=1;shadow=1;strokeWidth=1;fontSize=16;align=center;fillColor=#f5f5f5;strokeColor=#666666;" vertex="1" parent="1">
          <mxGeometry x="1395" y="500" width="125" height="80" as="geometry" />
        </mxCell>
        <mxCell id="naJAC-TWyROlUof-yu1L-41" style="edgeStyle=orthogonalEdgeStyle;rounded=0;orthogonalLoop=1;jettySize=auto;html=1;" edge="1" parent="1" source="naJAC-TWyROlUof-yu1L-43" target="naJAC-TWyROlUof-yu1L-48">
          <mxGeometry relative="1" as="geometry">
            <Array as="points">
              <mxPoint x="1858" y="590" />
              <mxPoint x="1732" y="590" />
            </Array>
          </mxGeometry>
        </mxCell>
        <mxCell id="naJAC-TWyROlUof-yu1L-42" style="edgeStyle=orthogonalEdgeStyle;rounded=0;orthogonalLoop=1;jettySize=auto;html=1;" edge="1" parent="1" source="naJAC-TWyROlUof-yu1L-43" target="naJAC-TWyROlUof-yu1L-53">
          <mxGeometry relative="1" as="geometry" />
        </mxCell>
        <mxCell id="naJAC-TWyROlUof-yu1L-43" value="data" style="whiteSpace=wrap;html=1;rounded=1;shadow=1;strokeWidth=1;align=center;fillColor=#f5f5f5;strokeColor=#666666;fontSize=16;" vertex="1" parent="1">
          <mxGeometry x="1810" y="507.5" width="95" height="50" as="geometry" />
        </mxCell>
        <mxCell id="naJAC-TWyROlUof-yu1L-44" value="" style="edgeStyle=orthogonalEdgeStyle;rounded=0;orthogonalLoop=1;jettySize=auto;html=1;" edge="1" parent="1" source="naJAC-TWyROlUof-yu1L-45" target="naJAC-TWyROlUof-yu1L-57">
          <mxGeometry relative="1" as="geometry" />
        </mxCell>
        <mxCell id="naJAC-TWyROlUof-yu1L-45" value="&quot;type&quot;: &quot;Phase&quot;," style="whiteSpace=wrap;html=1;rounded=1;shadow=1;strokeWidth=1;align=center;fillColor=#f5f5f5;strokeColor=#666666;fontSize=16;" vertex="1" parent="1">
          <mxGeometry x="1095" y="507.5" width="125" height="80" as="geometry" />
        </mxCell>
        <mxCell id="naJAC-TWyROlUof-yu1L-46" value="links object" style="whiteSpace=wrap;html=1;rounded=1;shadow=1;strokeWidth=1;fontSize=16;align=center;fillColor=#f5f5f5;strokeColor=#666666;" vertex="1" parent="1">
          <mxGeometry x="1550" y="500" width="125" height="80" as="geometry" />
        </mxCell>
        <mxCell id="naJAC-TWyROlUof-yu1L-47" value="" style="edgeStyle=orthogonalEdgeStyle;rounded=0;orthogonalLoop=1;jettySize=auto;html=1;" edge="1" parent="1" source="naJAC-TWyROlUof-yu1L-48" target="naJAC-TWyROlUof-yu1L-58">
          <mxGeometry relative="1" as="geometry">
            <Array as="points">
              <mxPoint x="1732" y="720" />
              <mxPoint x="1732" y="720" />
            </Array>
          </mxGeometry>
        </mxCell>
        <mxCell id="naJAC-TWyROlUof-yu1L-48" value="summaries:" style="whiteSpace=wrap;html=1;rounded=1;shadow=1;strokeWidth=1;align=center;fillColor=#f5f5f5;strokeColor=#666666;fontSize=16;" vertex="1" parent="1">
          <mxGeometry x="1680" y="625" width="104.5" height="50" as="geometry" />
        </mxCell>
        <mxCell id="naJAC-TWyROlUof-yu1L-49" value="overdue A" style="whiteSpace=wrap;html=1;rounded=1;shadow=1;strokeWidth=1;fontSize=16;align=center;fillColor=#f5f5f5;strokeColor=#666666;" vertex="1" parent="1">
          <mxGeometry x="1320" y="620" width="80" height="60" as="geometry" />
        </mxCell>
        <mxCell id="naJAC-TWyROlUof-yu1L-50" value="" style="edgeStyle=orthogonalEdgeStyle;rounded=0;orthogonalLoop=1;jettySize=auto;html=1;" edge="1" parent="1" source="naJAC-TWyROlUof-yu1L-53" target="naJAC-TWyROlUof-yu1L-62">
          <mxGeometry relative="1" as="geometry">
            <Array as="points">
              <mxPoint x="1950" y="700" />
              <mxPoint x="2045" y="700" />
            </Array>
          </mxGeometry>
        </mxCell>
        <mxCell id="naJAC-TWyROlUof-yu1L-51" style="edgeStyle=orthogonalEdgeStyle;rounded=0;orthogonalLoop=1;jettySize=auto;html=1;" edge="1" parent="1" source="naJAC-TWyROlUof-yu1L-53" target="naJAC-TWyROlUof-yu1L-61">
          <mxGeometry relative="1" as="geometry">
            <Array as="points">
              <mxPoint x="1950" y="770" />
              <mxPoint x="1950" y="770" />
            </Array>
          </mxGeometry>
        </mxCell>
        <mxCell id="naJAC-TWyROlUof-yu1L-52" style="edgeStyle=orthogonalEdgeStyle;rounded=0;orthogonalLoop=1;jettySize=auto;html=1;" edge="1" parent="1" source="naJAC-TWyROlUof-yu1L-53" target="naJAC-TWyROlUof-yu1L-60">
          <mxGeometry relative="1" as="geometry">
            <Array as="points">
              <mxPoint x="1950" y="700" />
              <mxPoint x="1840" y="700" />
            </Array>
          </mxGeometry>
        </mxCell>
        <mxCell id="naJAC-TWyROlUof-yu1L-53" value="groups array" style="whiteSpace=wrap;html=1;rounded=1;shadow=1;strokeWidth=1;align=center;fillColor=#f5f5f5;strokeColor=#666666;fontSize=16;" vertex="1" parent="1">
          <mxGeometry x="1900" y="625" width="100" height="50" as="geometry" />
        </mxCell>
        <mxCell id="naJAC-TWyROlUof-yu1L-54" value="overdue B" style="whiteSpace=wrap;html=1;rounded=1;shadow=1;strokeWidth=1;fontSize=16;align=center;fillColor=#f5f5f5;strokeColor=#666666;" vertex="1" parent="1">
          <mxGeometry x="1412.5" y="620" width="90" height="60" as="geometry" />
        </mxCell>
        <mxCell id="naJAC-TWyROlUof-yu1L-55" value="&quot;code&quot;: &quot;3.0.0&quot;" style="whiteSpace=wrap;html=1;rounded=1;shadow=1;strokeWidth=1;align=center;fillColor=#f5f5f5;strokeColor=#666666;fontSize=16;" vertex="1" parent="1">
          <mxGeometry x="1097" y="732.5" width="125" height="80" as="geometry" />
        </mxCell>
        <mxCell id="naJAC-TWyROlUof-yu1L-56" value="" style="edgeStyle=orthogonalEdgeStyle;rounded=0;orthogonalLoop=1;jettySize=auto;html=1;" edge="1" parent="1" source="naJAC-TWyROlUof-yu1L-57" target="naJAC-TWyROlUof-yu1L-55">
          <mxGeometry relative="1" as="geometry" />
        </mxCell>
        <mxCell id="naJAC-TWyROlUof-yu1L-57" value="&quot;id&quot;: 28," style="whiteSpace=wrap;html=1;rounded=1;shadow=1;strokeWidth=1;align=center;fillColor=#f5f5f5;strokeColor=#666666;fontSize=16;" vertex="1" parent="1">
          <mxGeometry x="1097" y="617.5" width="125" height="80" as="geometry" />
        </mxCell>
        <mxCell id="naJAC-TWyROlUof-yu1L-58" value="&quot;id&quot;: 1934" style="whiteSpace=wrap;html=1;rounded=1;shadow=1;strokeWidth=1;align=center;fillColor=#f5f5f5;strokeColor=#666666;fontSize=16;" vertex="1" parent="1">
          <mxGeometry x="1670" y="742.5" width="114.5" height="40" as="geometry" />
        </mxCell>
        <mxCell id="naJAC-TWyROlUof-yu1L-59" value="overdue C" style="whiteSpace=wrap;html=1;rounded=1;shadow=1;strokeWidth=1;fontSize=16;align=center;fillColor=#f5f5f5;strokeColor=#666666;" vertex="1" parent="1">
          <mxGeometry x="1530" y="620" width="90" height="60" as="geometry" />
        </mxCell>
        <mxCell id="naJAC-TWyROlUof-yu1L-60" value="group A" style="whiteSpace=wrap;html=1;rounded=1;shadow=1;strokeWidth=1;align=center;fillColor=#f5f5f5;strokeColor=#666666;fontSize=16;" vertex="1" parent="1">
          <mxGeometry x="1800" y="725" width="80" height="60" as="geometry" />
        </mxCell>
        <mxCell id="naJAC-TWyROlUof-yu1L-61" value="group B" style="whiteSpace=wrap;html=1;rounded=1;shadow=1;strokeWidth=1;fontSize=16;align=center;fillColor=#f5f5f5;strokeColor=#666666;" vertex="1" parent="1">
          <mxGeometry x="1900" y="725" width="80" height="57.5" as="geometry" />
        </mxCell>
        <mxCell id="naJAC-TWyROlUof-yu1L-62" value="group C" style="whiteSpace=wrap;html=1;rounded=1;shadow=1;strokeWidth=1;fontSize=16;align=center;fillColor=#f5f5f5;strokeColor=#666666;" vertex="1" parent="1">
          <mxGeometry x="2000" y="727.5" width="80" height="55" as="geometry" />
        </mxCell>
      </root>
    </mxGraphModel>
  </diagram>
</mxfile>
